<svg width="290" height="40" viewBox="0 0 290 40" fill="none" xmlns="http://www.w3.org/2000/svg">
<g clip-path="url(#clip0)">
<path fill-rule="evenodd" clip-rule="evenodd" d="M155.51 4.86655L102.711 1.88282C78.2896 2.32708 53.8692 2.77162 29.4483 3.21588C17.0342 3.44175 0.323965 0.594015 0.323965 9.88282C0.323965 28.822 -3.82304 36.1724 10.8928 38.1039C42.1643 42.2074 56.8408 38.8284 86.1859 37.9762L134.599 37.8311C144.936 37.8311 156.74 39.2647 169.818 39.2642L241.358 39.9812C250.476 39.9812 260.344 38.5228 272.233 38.5834C278.317 38.6146 281.898 38.3257 284.67 35.9258C286.636 34.2241 289.785 29.6388 289.785 27.0818C289.785 22.4108 285.375 5.74362 281.805 2.87455C272.77 -4.38572 171.333 4.86655 155.51 4.86655Z" fill="white"/>
<path fill-rule="evenodd" clip-rule="evenodd" d="M269.063 2.27658C280.523 2.29658 280.913 5.62832 283.153 12.6078C284.215 15.9168 287.128 26.5755 285.867 29.287C282.397 36.748 279.441 36.5024 266.863 36.4331C256.32 36.375 247.7 37.9704 239.326 37.8848L152.558 36.9971C145.767 36.9278 140.739 36.4299 135.577 36.2579C119.411 35.7195 107.943 35.2704 86.233 35.7046C52.5081 36.3787 59.9362 40.3107 14.8379 36.2958C-0.491502 34.9312 3.6294 26.8467 3.6294 9.54352C3.6294 4.27498 13.1062 3.88218 20.1503 3.72992C47.269 3.14432 74.4453 3.08725 101.685 3.59898C111.338 3.78005 124.436 5.45045 131.442 5.37978C139.591 5.29738 148.553 6.55552 156.702 6.47578C183.66 6.21178 206.119 3.35418 232.968 2.74218L254.519 2.25072L269.063 2.27658ZM241.528 40.0648C246.027 40.111 254.499 39.0528 273.536 38.6534C282.115 38.4739 284.4 37.4347 288.041 31.692C288.901 30.3358 289.722 28.8792 289.775 27.2656C289.971 21.24 287.613 13.7416 285.868 9.31845C283.265 2.71898 282.435 -0.0319506 270.164 0.096316C265.496 0.145383 260.127 0.0856494 254.564 0.0968494C247.005 0.112316 239.145 0.257649 232.821 0.570716L155.611 4.39658C148.558 4.74592 139.673 3.90218 130.868 3.47685C121.086 3.00432 116.646 2.00032 102.71 1.88538C77.9154 1.68112 51.1351 0.771783 26.401 1.91952C14.1564 2.48778 0.325055 0.182716 0.325055 9.54352C0.325055 28.7883 -3.82277 36.1859 10.9063 38.1603C28.1091 40.4659 34.091 40.0648 49.8873 40.0648C59.9329 40.0648 75.7176 37.9915 87.3528 37.9707L134.694 37.8848C139.844 37.8755 148.939 38.4027 154.081 38.7198C159.65 39.0632 165.285 39.2787 171.04 39.3382L241.528 40.0648Z" fill="#22B14C"/>
<g clip-path="url(#clip1)">
<path d="M269.46 19.428C269.46 17.952 268.86 17.088 267.48 16.548C266.496 16.152 265.56 15.96 264.72 15.96C262.752 15.96 261.024 16.764 259.908 18.216C259.32 18.972 258.996 19.788 258.996 20.496C258.996 22.308 261 23.7 263.58 23.7C265.56 23.7 267.54 22.884 268.644 21.612C269.172 21.012 269.46 20.244 269.46 19.428ZM267.876 19.524C267.876 20.76 267.108 21.636 265.476 22.26C264.78 22.536 264.144 22.668 263.604 22.668C261.972 22.668 260.568 21.648 260.568 20.472C260.568 19.284 261.828 17.82 263.28 17.316C263.712 17.172 264.192 17.088 264.708 17.088C266.676 17.1 267.876 18.012 267.876 19.524ZM279.882 22.26L278.814 21.864L278.442 22.476L274.338 21.564L277.758 20.244L278.418 20.808L279.33 20.124L276.798 18.132L275.982 18.78L276.654 19.344L273.138 20.928L273.006 19.356L274.626 19.176L274.578 18.3L270.27 18.636L270.282 19.536L271.53 19.476L271.854 23.724L270.246 23.772L270.258 24.84L275.154 24.588L275.118 23.496L273.282 23.592L273.186 22.464L277.878 23.652L277.41 24.648L278.454 25.02L279.882 22.26Z" fill="white"/>
</g>
</g>
<defs>
<clipPath id="clip0">
<rect width="290" height="40" fill="white"/>
</clipPath>
<clipPath id="clip1">
<rect width="40" height="40" fill="white" transform="translate(249.6)"/>
</clipPath>
</defs>
</svg>
