<?xml version="1.0" encoding="utf-8"?>
<svg version="1.1" xmlns:xlink="http://www.w3.org/1999/xlink" width="217px" height="123px" xmlns="http://www.w3.org/2000/svg">
  <g transform="matrix(1 0 0 1 -692 -67 )">
    <path d="M 692 67  L 909 67  L 909 190  L 692 190  L 692 67  " fill-rule="nonzero" fill="#cccccc" stroke="none" />
    <path d="M 701 76  L 900 76  L 900 181  L 701 181  L 701 76  " fill-rule="nonzero" fill="#ffffff" stroke="none" />
    <path d="M 814.065 103.9  C 808.899 103.9  804.84 99.841  804.84 94.675  C 804.84 89.509  808.899 85.45  814.065 85.45  C 819.231 85.45  823.29 89.509  823.29 94.675  C 823.29 99.841  819.231 103.9  814.065 103.9  " fill-rule="nonzero" fill="#cccccc" stroke="none" />
    <path d="M 704 178  L 704 123.55  L 752.25 98.8  L 819.8 144.330875576037  L 858.4 113.65  L 897 144.330875576037  L 897 178  L 704 178  " fill-rule="nonzero" fill="#169bd5" stroke="none" />
  </g>
</svg>