<?xml version="1.0" encoding="utf-8"?>
<svg version="1.1" xmlns:xlink="http://www.w3.org/1999/xlink" width="170px" height="170px" xmlns="http://www.w3.org/2000/svg">
  <g transform="matrix(1 0 0 1 -415 -315 )">
    <path d="M 500 315  C 547.6 315  585 352.4  585 400  C 585 447.6  547.6 485  500 485  C 452.4 485  415 447.6  415 400  C 415 352.4  452.4 315  500 315  Z " fill-rule="nonzero" fill="#ffffff" stroke="none" />
    <path d="M 500 315.5  C 547.32 315.5  584.5 352.68  584.5 400  C 584.5 447.32  547.32 484.5  500 484.5  C 452.68 484.5  415.5 447.32  415.5 400  C 415.5 352.68  452.68 315.5  500 315.5  Z " stroke-width="1" stroke="#797979" fill="none" />
  </g>
</svg>