<?xml version="1.0" encoding="utf-8"?>
<svg version="1.1" xmlns:xlink="http://www.w3.org/1999/xlink" width="14px" height="14px" xmlns="http://www.w3.org/2000/svg">
  <g transform="matrix(1 0 0 1 -1310 -423 )">
    <path d="M 1317 423  C 1320.92 423  1324 426.08  1324 430  C 1324 433.92  1320.92 437  1317 437  C 1313.08 437  1310 433.92  1310 430  C 1310 426.08  1313.08 423  1317 423  Z " fill-rule="nonzero" fill="#ffffff" stroke="none" />
    <path d="M 1317 423.5  C 1320.64 423.5  1323.5 426.36  1323.5 430  C 1323.5 433.64  1320.64 436.5  1317 436.5  C 1313.36 436.5  1310.5 433.64  1310.5 430  C 1310.5 426.36  1313.36 423.5  1317 423.5  Z " stroke-width="1" stroke="#797979" fill="none" />
  </g>
</svg>