<svg width="40" height="40" viewBox="0 0 40 40" fill="none" xmlns="http://www.w3.org/2000/svg">
<g clip-path="url(#clip0)">
<path fill-rule="evenodd" clip-rule="evenodd" d="M1.64181 4.73041C1.64181 10.2016 0.472215 15.3104 0.151415 19.8533C-0.635252 30.9811 -0.225652 38.7176 6.59781 40.084C10.357 40.2237 18.5357 38.8461 21.1418 38.8835C31.0637 39.0264 33.5546 38.4077 35.6053 36.8429C37.0194 36.1981 39.989 32.0968 39.7578 27.4904C40.4543 22.6144 37.5037 5.47734 34.7405 2.75574C34.4335 0.47441 25.6077 -0.790657 17.373 0.815743C10.7978 2.09841 1.64181 -0.367457 1.64181 4.73041Z" fill="#22B14C"/>
<path d="M19.86 19.428C19.86 17.952 19.26 17.088 17.88 16.548C16.896 16.152 15.96 15.96 15.12 15.96C13.152 15.96 11.424 16.764 10.308 18.216C9.72 18.972 9.396 19.788 9.396 20.496C9.396 22.308 11.4 23.7 13.98 23.7C15.96 23.7 17.94 22.884 19.044 21.612C19.572 21.012 19.86 20.244 19.86 19.428ZM18.276 19.524C18.276 20.76 17.508 21.636 15.876 22.26C15.18 22.536 14.544 22.668 14.004 22.668C12.372 22.668 10.968 21.648 10.968 20.472C10.968 19.284 12.228 17.82 13.68 17.316C14.112 17.172 14.592 17.088 15.108 17.088C17.076 17.1 18.276 18.012 18.276 19.524ZM30.2823 22.26L29.2143 21.864L28.8423 22.476L24.7383 21.564L28.1583 20.244L28.8183 20.808L29.7303 20.124L27.1983 18.132L26.3823 18.78L27.0543 19.344L23.5383 20.928L23.4063 19.356L25.0263 19.176L24.9783 18.3L20.6703 18.636L20.6823 19.536L21.9303 19.476L22.2543 23.724L20.6463 23.772L20.6583 24.84L25.5543 24.588L25.5183 23.496L23.6823 23.592L23.5863 22.464L28.2783 23.652L27.8103 24.648L28.8543 25.02L30.2823 22.26Z" fill="white"/>
</g>
<defs>
<clipPath id="clip0">
<rect width="40" height="40" fill="white"/>
</clipPath>
</defs>
</svg>
