<svg width="250" height="40" viewBox="0 0 250 40" fill="none" xmlns="http://www.w3.org/2000/svg">
<g clip-path="url(#clip0)">
<path fill-rule="evenodd" clip-rule="evenodd" d="M134.061 4.86655L88.5437 1.88282C67.4912 2.32708 46.4391 2.77162 25.3866 3.21588C14.6848 3.44175 0.279432 0.594015 0.279432 9.88282C0.279432 28.822 -3.29557 36.1724 9.3905 38.1039C36.3487 42.2074 49.0009 38.8284 74.2984 37.9762L116.033 37.8311C124.945 37.8311 135.121 39.2647 146.395 39.2642L208.068 39.9812C215.928 39.9812 224.434 38.5228 234.683 38.5834C239.928 38.6146 243.016 38.3257 245.406 35.9258C247.1 34.2241 249.814 29.6388 249.814 27.0818C249.814 22.4108 246.013 5.74362 242.935 2.87455C235.147 -4.38572 147.701 4.86655 134.061 4.86655Z" fill="white"/>
<path fill-rule="evenodd" clip-rule="evenodd" d="M231.951 2.27655C241.831 2.29655 242.167 5.62829 244.098 12.6078C245.013 15.9168 247.524 26.5755 246.438 29.287C243.446 36.748 240.897 36.5024 230.054 36.4331C220.966 36.375 213.535 37.9704 206.316 37.8848L131.516 36.9971C125.661 36.9277 121.327 36.4299 116.877 36.2579C102.941 35.7195 93.0549 35.2704 74.3391 35.7046C45.2659 36.3787 51.6695 40.3107 12.7916 36.2957C-0.423355 34.9312 3.12914 26.8467 3.12914 9.54349C3.12914 4.27495 11.2988 3.88215 17.3713 3.72989C40.7495 3.14429 64.1774 3.08722 87.6599 3.59895C95.9816 3.78002 107.272 5.45042 113.313 5.37975C120.337 5.29735 128.063 6.55548 135.088 6.47575C158.328 6.21175 177.689 3.35415 200.835 2.74215L219.413 2.25069L231.951 2.27655ZM208.214 40.0648C212.092 40.111 219.396 39.0528 235.807 38.6534C243.203 38.4739 245.173 37.4347 248.312 31.692C249.053 30.3357 249.761 28.8792 249.807 27.2656C249.975 21.24 247.943 13.7416 246.438 9.31842C244.194 2.71895 243.479 -0.0319812 232.901 0.0962855C228.877 0.145352 224.247 0.0856188 219.452 0.0968188C212.936 0.112286 206.16 0.257619 200.708 0.570685L134.147 4.39655C128.067 4.74588 120.408 3.90215 112.817 3.47682C104.385 3.00429 100.557 2.00029 88.5434 1.88535C67.1688 1.68109 44.0824 0.771752 22.7599 1.91949C12.2041 2.48775 0.280573 0.182686 0.280573 9.54349C0.280573 28.7883 -3.29514 36.1859 9.40236 38.1603C24.2324 40.4659 29.3891 40.0648 43.0066 40.0648C51.6666 40.0648 65.2741 37.9915 75.3045 37.9707L116.116 37.8848C120.555 37.8755 128.396 38.4027 132.829 38.7197C137.63 39.0632 142.487 39.2787 147.448 39.3382L208.214 40.0648Z" fill="#22B14C"/>
<g clip-path="url(#clip1)">
<path fill-rule="evenodd" clip-rule="evenodd" d="M211.642 4.73041C211.642 10.2016 210.472 15.3104 210.152 19.8533C209.365 30.9811 209.774 38.7176 216.598 40.084C220.357 40.2237 228.536 38.8461 231.142 38.8835C241.064 39.0264 243.555 38.4077 245.605 36.8429C247.02 36.1981 249.989 32.0968 249.758 27.4904C250.454 22.6144 247.504 5.47734 244.741 2.75574C244.434 0.47441 235.608 -0.790657 227.373 0.815743C220.798 2.09841 211.642 -0.367457 211.642 4.73041Z" fill="#22B14C"/>
<path d="M229.86 19.428C229.86 17.952 229.26 17.088 227.88 16.548C226.896 16.152 225.96 15.96 225.12 15.96C223.152 15.96 221.424 16.764 220.308 18.216C219.72 18.972 219.396 19.788 219.396 20.496C219.396 22.308 221.4 23.7 223.98 23.7C225.96 23.7 227.94 22.884 229.044 21.612C229.572 21.012 229.86 20.244 229.86 19.428ZM228.276 19.524C228.276 20.76 227.508 21.636 225.876 22.26C225.18 22.536 224.544 22.668 224.004 22.668C222.372 22.668 220.968 21.648 220.968 20.472C220.968 19.284 222.228 17.82 223.68 17.316C224.112 17.172 224.592 17.088 225.108 17.088C227.076 17.1 228.276 18.012 228.276 19.524ZM240.282 22.26L239.214 21.864L238.842 22.476L234.738 21.564L238.158 20.244L238.818 20.808L239.73 20.124L237.198 18.132L236.382 18.78L237.054 19.344L233.538 20.928L233.406 19.356L235.026 19.176L234.978 18.3L230.67 18.636L230.682 19.536L231.93 19.476L232.254 23.724L230.646 23.772L230.658 24.84L235.554 24.588L235.518 23.496L233.682 23.592L233.586 22.464L238.278 23.652L237.81 24.648L238.854 25.02L240.282 22.26Z" fill="white"/>
</g>
</g>
<defs>
<clipPath id="clip0">
<rect width="250" height="40" fill="white"/>
</clipPath>
<clipPath id="clip1">
<rect width="40" height="40" fill="white" transform="translate(210)"/>
</clipPath>
</defs>
</svg>
