<svg width="250" height="40" viewBox="0 0 250 40" fill="none" xmlns="http://www.w3.org/2000/svg">
<g clip-path="url(#clip0)">
<path fill-rule="evenodd" clip-rule="evenodd" d="M134.061 4.86652L88.5436 1.88278C67.4911 2.32705 46.439 2.77158 25.3865 3.21585C14.6847 3.44172 0.27931 0.593985 0.27931 9.88278C0.27931 28.822 -3.29569 36.1724 9.39038 38.1039C36.3486 42.2073 49.0007 38.8284 74.2982 37.9761L116.033 37.8311C124.945 37.8311 135.121 39.2647 146.395 39.2641L208.068 39.9812C215.928 39.9812 224.434 38.5228 234.683 38.5833C239.928 38.6145 243.015 38.3257 245.405 35.9257C247.1 34.2241 249.814 29.6388 249.814 27.0817C249.814 22.4108 246.013 5.74358 242.935 2.87452C235.147 -4.38575 147.701 4.86652 134.061 4.86652Z" fill="white"/>
<path fill-rule="evenodd" clip-rule="evenodd" d="M231.951 2.27654C241.83 2.29654 242.167 5.62827 244.098 12.6077C245.013 15.9168 247.524 26.5755 246.438 29.2869C243.446 36.748 240.897 36.5024 230.054 36.4331C220.965 36.3749 213.535 37.9704 206.315 37.8848L131.516 36.9971C125.661 36.9277 121.327 36.4299 116.877 36.2579C102.941 35.7195 93.0547 35.2704 74.339 35.7045C45.2658 36.3787 51.6694 40.3107 12.7915 36.2957C-0.423477 34.9312 3.12902 26.8467 3.12902 9.54347C3.12902 4.27494 11.2987 3.88214 17.3712 3.72987C40.7494 3.14427 64.1772 3.0872 87.6597 3.59894C95.9815 3.78 107.272 5.4504 113.313 5.37974C120.337 5.29734 128.063 6.55547 135.088 6.47574C158.328 6.21174 177.689 3.35414 200.834 2.74214L219.413 2.25067L231.951 2.27654ZM208.214 40.0648C212.092 40.1109 219.396 39.0528 235.807 38.6533C243.203 38.4739 245.173 37.4347 248.312 31.692C249.053 30.3357 249.761 28.8792 249.807 27.2656C249.975 21.24 247.943 13.7416 246.438 9.3184C244.194 2.71894 243.479 -0.0319964 232.9 0.0962702C228.877 0.145337 224.247 0.0856036 219.452 0.0968036C212.936 0.11227 206.16 0.257604 200.708 0.57067L134.147 4.39654C128.067 4.74587 120.408 3.90214 112.817 3.4768C104.385 3.00427 100.557 2.00027 88.5433 1.88534C67.1687 1.68107 44.0822 0.771737 22.7597 1.91947C12.204 2.48774 0.280451 0.182671 0.280451 9.54347C0.280451 28.7883 -3.29526 36.1859 9.40224 38.1603C24.2322 40.4659 29.389 40.0648 43.0065 40.0648C51.6665 40.0648 65.274 37.9915 75.3044 37.9707L116.116 37.8848C120.555 37.8755 128.396 38.4027 132.829 38.7197C137.63 39.0632 142.487 39.2787 147.448 39.3381L208.214 40.0648Z" fill="#22B14C"/>
<g clip-path="url(#clip1)">
<path fill-rule="evenodd" clip-rule="evenodd" d="M211.642 4.73041C211.642 10.2016 210.472 15.3104 210.151 19.8533C209.365 30.9811 209.774 38.7176 216.598 40.084C220.357 40.2237 228.536 38.8461 231.142 38.8835C241.064 39.0264 243.555 38.4077 245.605 36.8429C247.019 36.1981 249.989 32.0968 249.758 27.4904C250.454 22.6144 247.504 5.47734 244.74 2.75574C244.434 0.47441 235.608 -0.790657 227.373 0.815743C220.798 2.09841 211.642 -0.367457 211.642 4.73041Z" fill="#22B14C"/>
<path d="M229.86 19.428C229.86 17.952 229.26 17.088 227.88 16.548C226.896 16.152 225.96 15.96 225.12 15.96C223.152 15.96 221.424 16.764 220.308 18.216C219.72 18.972 219.396 19.788 219.396 20.496C219.396 22.308 221.4 23.7 223.98 23.7C225.96 23.7 227.94 22.884 229.044 21.612C229.572 21.012 229.86 20.244 229.86 19.428ZM228.276 19.524C228.276 20.76 227.508 21.636 225.876 22.26C225.18 22.536 224.544 22.668 224.004 22.668C222.372 22.668 220.968 21.648 220.968 20.472C220.968 19.284 222.228 17.82 223.68 17.316C224.112 17.172 224.592 17.088 225.108 17.088C227.076 17.1 228.276 18.012 228.276 19.524ZM240.282 22.26L239.214 21.864L238.842 22.476L234.738 21.564L238.158 20.244L238.818 20.808L239.73 20.124L237.198 18.132L236.382 18.78L237.054 19.344L233.538 20.928L233.406 19.356L235.026 19.176L234.978 18.3L230.67 18.636L230.682 19.536L231.93 19.476L232.254 23.724L230.646 23.772L230.658 24.84L235.554 24.588L235.518 23.496L233.682 23.592L233.586 22.464L238.278 23.652L237.81 24.648L238.854 25.02L240.282 22.26Z" fill="white"/>
</g>
<path d="M15.66 22.908L14.028 20.532L13.188 20.952L13.512 21.468C12.504 21.828 12.084 21.912 11.076 21.912C9.192 21.912 7.752 21.216 7.752 20.292C7.752 19.608 8.328 19.044 9.396 18.696C9.996 18.504 10.548 18.408 11.028 18.408C11.316 18.408 11.736 18.456 12.3 18.54L12.156 19.332L13.092 19.524L13.68 16.656L12.756 16.404L12.588 17.22C11.988 17.148 11.544 17.112 11.244 17.112C8.652 17.112 6.312 18.66 6.312 20.364C6.312 21.996 8.232 23.172 10.884 23.172C11.988 23.172 12.612 23.064 14.22 22.56L14.76 23.34L15.66 22.908ZM21.8527 19.14L21.1447 18.852L20.5807 19.452C20.1967 19.404 20.0167 19.38 19.7887 19.38C18.6727 19.38 17.4487 19.884 16.7767 20.628C16.4647 20.964 16.2967 21.42 16.2967 21.912C16.2967 22.812 16.8127 23.508 17.7847 23.928C18.3007 24.156 18.7927 24.276 19.2367 24.276C19.7527 24.276 20.5207 24.084 21.4447 23.724L20.8927 22.956C20.4367 23.136 20.2447 23.172 19.9087 23.172C18.7447 23.172 17.7607 22.512 17.7607 21.744C17.7607 21.012 18.5767 20.352 19.4767 20.352C19.6207 20.352 19.8247 20.376 20.0887 20.436L19.8847 20.928L20.7127 21.192L21.8527 19.14ZM35.0887 23.964L34.8967 23.112L33.3607 23.148L33.7447 19.356L35.0287 19.14L34.8367 18.24L30.9727 18.636L31.1527 19.56L32.4127 19.428L31.9807 23.196L30.3487 23.364V24.192L35.0887 23.964ZM30.3247 21.936C30.3247 21.12 29.7847 20.196 29.1367 19.932C28.9567 19.86 28.7167 19.812 28.4407 19.812C27.6487 19.812 27.0847 19.944 25.8367 20.424L26.0287 18.348L22.4647 18.72L22.5727 19.68L24.5167 19.464L24.2527 22.74L22.2607 22.848L22.2727 23.928L25.4767 23.772L25.5127 23.376C26.4367 23.772 27.1807 23.988 27.6967 23.988C29.1487 23.988 30.3247 23.064 30.3247 21.936ZM28.7887 21.84C28.7887 22.5 28.3207 22.872 27.4687 22.872C26.8327 22.872 26.4127 22.752 25.6327 22.356L25.7167 21.468C26.8327 21.06 27.2767 20.952 27.8887 20.952C28.4767 20.952 28.7887 21.264 28.7887 21.84ZM43.8989 24.192L43.5869 23.292L42.5069 23.52L42.0629 18.264L37.2629 19.092L37.9469 21.54C38.0549 21.924 38.1029 22.272 38.1029 22.56C38.1029 23.16 37.7549 23.508 37.1549 23.508C36.6749 23.508 36.4829 23.34 36.4829 22.932C36.4829 22.788 36.5189 22.572 36.6029 22.296L35.5709 22.452C35.4989 22.8 35.4749 22.992 35.4749 23.172C35.4749 24.072 36.0509 24.564 37.1189 24.564C38.5349 24.564 39.4349 23.7 39.4349 22.344C39.4349 22.044 39.3989 21.744 39.3149 21.456L38.8829 19.836L40.7429 19.44L41.1509 23.784L39.9029 24.072L40.1669 24.96L43.8989 24.192ZM54.0831 22.26L53.0151 21.864L52.6431 22.476L48.5391 21.564L51.9591 20.244L52.6191 20.808L53.5311 20.124L50.9991 18.132L50.1831 18.78L50.8551 19.344L47.3391 20.928L47.2071 19.356L48.8271 19.176L48.7791 18.3L44.4711 18.636L44.4831 19.536L45.7311 19.476L46.0551 23.724L44.4471 23.772L44.4591 24.84L49.3551 24.588L49.3191 23.496L47.4831 23.592L47.3871 22.464L52.0791 23.652L51.6111 24.648L52.6551 25.02L54.0831 22.26ZM61.6473 22.872L60.4833 23.136L60.4593 22.044C60.3993 19.572 59.7753 18.576 58.2993 18.576C57.5073 18.576 56.6913 18.924 56.1873 19.464C55.9953 19.668 55.8873 19.944 55.8873 20.184C55.8873 20.652 56.3193 21.036 56.8593 21.036C57.1233 21.036 57.5553 20.832 57.9993 20.52L57.4473 20.124C57.3273 20.184 57.2073 20.208 57.1113 20.208C56.9913 20.208 56.8833 20.1 56.8833 19.968C56.8833 19.644 57.4353 19.344 58.0473 19.344C58.7913 19.344 58.9953 19.8 58.9953 21.468C58.5153 21.384 58.2993 21.36 57.9633 21.36C57.3153 21.36 56.5953 21.528 55.7313 21.876C54.9993 22.188 54.6033 22.548 54.6033 22.92C54.6033 23.568 55.4553 24.168 56.3793 24.168C56.8953 24.168 58.1793 23.916 59.0673 23.64L59.1993 24.06L59.5953 24.192L61.6353 23.532L61.6473 22.872ZM58.9833 22.836C58.0833 23.148 57.6873 23.22 57.0273 23.22C56.3913 23.22 56.0793 23.112 56.0793 22.872C56.0793 22.692 56.2833 22.548 56.7273 22.428C57.3753 22.236 57.8433 22.152 58.1913 22.152C58.4433 22.152 58.6113 22.188 58.9833 22.32V22.836ZM76.3134 19.008L72.5694 18.816L72.4494 19.692L73.6734 19.8L73.4934 20.964L69.5814 20.868L69.2934 19.404L70.2534 19.44L70.3014 18.504L67.0734 18.432L67.1094 19.332L67.8894 19.344L68.7654 24.42L67.5414 24.396L67.4574 25.248L71.1534 25.404L71.1894 24.564L70.1814 24.468L69.7374 21.924L73.3374 22.008L73.0494 23.352L71.5734 23.268L71.4894 24.096L75.8574 24.36L75.9174 23.484L74.3454 23.412L75.0654 19.86L76.2174 19.92L76.3134 19.008ZM83.8895 22.872L82.7255 23.136L82.7015 22.044C82.6415 19.572 82.0175 18.576 80.5415 18.576C79.7495 18.576 78.9335 18.924 78.4295 19.464C78.2375 19.668 78.1295 19.944 78.1295 20.184C78.1295 20.652 78.5615 21.036 79.1015 21.036C79.3655 21.036 79.7975 20.832 80.2415 20.52L79.6895 20.124C79.5695 20.184 79.4495 20.208 79.3535 20.208C79.2335 20.208 79.1255 20.1 79.1255 19.968C79.1255 19.644 79.6775 19.344 80.2895 19.344C81.0335 19.344 81.2375 19.8 81.2375 21.468C80.7575 21.384 80.5415 21.36 80.2055 21.36C79.5575 21.36 78.8375 21.528 77.9735 21.876C77.2415 22.188 76.8455 22.548 76.8455 22.92C76.8455 23.568 77.6975 24.168 78.6215 24.168C79.1375 24.168 80.4215 23.916 81.3095 23.64L81.4415 24.06L81.8375 24.192L83.8775 23.532L83.8895 22.872ZM81.2255 22.836C80.3255 23.148 79.9295 23.22 79.2695 23.22C78.6335 23.22 78.3215 23.112 78.3215 22.872C78.3215 22.692 78.5255 22.548 78.9695 22.428C79.6175 22.236 80.0855 22.152 80.4335 22.152C80.6855 22.152 80.8535 22.188 81.2255 22.32V22.836ZM99.0596 22.26L97.9916 21.864L97.6196 22.476L93.5156 21.564L96.9356 20.244L97.5956 20.808L98.5076 20.124L95.9756 18.132L95.1596 18.78L95.8316 19.344L92.3156 20.928L92.1836 19.356L93.8036 19.176L93.7556 18.3L89.4476 18.636L89.4596 19.536L90.7076 19.476L91.0316 23.724L89.4236 23.772L89.4356 24.84L94.3316 24.588L94.2956 23.496L92.4596 23.592L92.3636 22.464L97.0556 23.652L96.5876 24.648L97.6316 25.02L99.0596 22.26ZM105.232 21.36C105.232 20.256 103.972 19.392 102.376 19.392C101.464 19.392 100.876 19.68 100.384 20.34C99.9638 20.904 99.7358 21.468 99.7358 21.936C99.7358 22.62 100.432 23.136 101.368 23.136C102.304 23.136 103.492 22.884 104.38 22.5C104.896 22.272 105.232 21.828 105.232 21.36ZM103.756 21.18C103.756 21.84 103.012 22.236 101.764 22.236C101.356 22.236 101.14 22.056 101.14 21.72C101.14 21.24 101.572 20.616 102.064 20.4C102.208 20.34 102.364 20.304 102.532 20.304C103.228 20.304 103.756 20.688 103.756 21.18ZM117.297 19.764L113.745 17.976L113.397 18.936L114.345 19.464L111.681 21.408L108.801 19.752L108.813 19.368L109.521 19.308L109.401 18.276L105.909 18.612L105.945 19.596L107.457 19.464L107.289 23.184H106.449L106.401 24.048L109.809 24.108V23.196L108.657 23.148L108.765 21.168L111.717 22.956L114.321 21.18V23.796L112.797 24.024L112.941 24.972L116.805 24.516L116.697 23.568L115.773 23.664L115.713 20.16L116.877 20.724L117.297 19.764ZM126.974 19.008L123.23 18.816L123.11 19.692L124.334 19.8L124.154 20.964L120.242 20.868L119.954 19.404L120.914 19.44L120.962 18.504L117.734 18.432L117.77 19.332L118.55 19.344L119.426 24.42L118.202 24.396L118.118 25.248L121.814 25.404L121.85 24.564L120.842 24.468L120.398 21.924L123.998 22.008L123.71 23.352L122.234 23.268L122.15 24.096L126.518 24.36L126.578 23.484L125.006 23.412L125.726 19.86L126.878 19.92L126.974 19.008ZM134.55 22.872L133.386 23.136L133.362 22.044C133.302 19.572 132.678 18.576 131.202 18.576C130.41 18.576 129.594 18.924 129.09 19.464C128.898 19.668 128.79 19.944 128.79 20.184C128.79 20.652 129.222 21.036 129.762 21.036C130.026 21.036 130.458 20.832 130.902 20.52L130.35 20.124C130.23 20.184 130.11 20.208 130.014 20.208C129.894 20.208 129.786 20.1 129.786 19.968C129.786 19.644 130.338 19.344 130.95 19.344C131.694 19.344 131.898 19.8 131.898 21.468C131.418 21.384 131.202 21.36 130.866 21.36C130.218 21.36 129.498 21.528 128.634 21.876C127.902 22.188 127.506 22.548 127.506 22.92C127.506 23.568 128.358 24.168 129.282 24.168C129.798 24.168 131.082 23.916 131.97 23.64L132.102 24.06L132.498 24.192L134.538 23.532L134.55 22.872ZM131.886 22.836C130.986 23.148 130.59 23.22 129.93 23.22C129.294 23.22 128.982 23.112 128.982 22.872C128.982 22.692 129.186 22.548 129.63 22.428C130.278 22.236 130.746 22.152 131.094 22.152C131.346 22.152 131.514 22.188 131.886 22.32V22.836ZM142.755 19.884L141.423 17.868L140.535 18.096L140.811 18.552L136.575 18.888L136.743 18.276L135.735 18.24L134.907 20.676L136.011 20.724L136.335 19.836L138.303 19.704L138.375 23.496L136.887 23.448L136.755 24.336L141.927 24.528V23.628L139.911 23.508L139.719 19.584L141.183 19.488L141.723 20.172L142.755 19.884ZM151.156 19.956L148.408 18.396L147.928 19.296L148.66 19.728L147.664 22.284L145.516 19.596L146.2 19.152L145.432 18.516L143.056 20.052L143.896 20.748L144.544 20.4L147.148 23.436L146.536 25.224C146.308 25.86 145.456 26.46 144.76 26.46C144.328 26.46 144.04 26.328 144.04 26.136C144.04 26.052 144.064 25.932 144.112 25.764L143.224 25.536C142.912 25.932 142.744 26.232 142.744 26.4C142.744 26.652 143.236 26.952 143.944 27.108C144.244 27.18 144.556 27.216 144.88 27.216C146.152 27.216 147.4 26.604 147.7 25.836L149.764 20.364L150.616 20.736L151.156 19.956Z" fill="#8C8C8C"/>
</g>
<defs>
<clipPath id="clip0">
<rect width="250" height="40" fill="white"/>
</clipPath>
<clipPath id="clip1">
<rect width="40" height="40" fill="white" transform="translate(210)"/>
</clipPath>
</defs>
</svg>
