<svg width="250" height="40" viewBox="0 0 250 40" fill="none" xmlns="http://www.w3.org/2000/svg">
<g clip-path="url(#clip0)">
<path fill-rule="evenodd" clip-rule="evenodd" d="M134.061 4.86652L88.5436 1.88278C67.4911 2.32705 46.439 2.77158 25.3865 3.21585C14.6847 3.44172 0.27931 0.593985 0.27931 9.88278C0.27931 28.822 -3.29569 36.1724 9.39038 38.1039C36.3486 42.2073 49.0007 38.8284 74.2982 37.9761L116.033 37.8311C124.945 37.8311 135.121 39.2647 146.395 39.2641L208.068 39.9812C215.928 39.9812 224.434 38.5228 234.683 38.5833C239.928 38.6145 243.015 38.3257 245.405 35.9257C247.1 34.2241 249.814 29.6388 249.814 27.0817C249.814 22.4108 246.013 5.74358 242.935 2.87452C235.147 -4.38575 147.701 4.86652 134.061 4.86652Z" fill="white"/>
<path fill-rule="evenodd" clip-rule="evenodd" d="M231.951 2.27654C241.83 2.29654 242.167 5.62827 244.098 12.6077C245.013 15.9168 247.524 26.5755 246.438 29.2869C243.446 36.748 240.897 36.5024 230.054 36.4331C220.965 36.3749 213.535 37.9704 206.315 37.8848L131.516 36.9971C125.661 36.9277 121.327 36.4299 116.877 36.2579C102.941 35.7195 93.0547 35.2704 74.339 35.7045C45.2658 36.3787 51.6694 40.3107 12.7915 36.2957C-0.423477 34.9312 3.12902 26.8467 3.12902 9.54347C3.12902 4.27494 11.2987 3.88214 17.3712 3.72987C40.7494 3.14427 64.1772 3.0872 87.6597 3.59894C95.9815 3.78 107.272 5.4504 113.313 5.37974C120.337 5.29734 128.063 6.55547 135.088 6.47574C158.328 6.21174 177.689 3.35414 200.834 2.74214L219.413 2.25067L231.951 2.27654ZM208.214 40.0648C212.092 40.1109 219.396 39.0528 235.807 38.6533C243.203 38.4739 245.173 37.4347 248.312 31.692C249.053 30.3357 249.761 28.8792 249.807 27.2656C249.975 21.24 247.943 13.7416 246.438 9.3184C244.194 2.71894 243.479 -0.0319964 232.9 0.0962702C228.877 0.145337 224.247 0.0856036 219.452 0.0968036C212.936 0.11227 206.16 0.257604 200.708 0.57067L134.147 4.39654C128.067 4.74587 120.408 3.90214 112.817 3.4768C104.385 3.00427 100.557 2.00027 88.5433 1.88534C67.1687 1.68107 44.0822 0.771737 22.7597 1.91947C12.204 2.48774 0.280451 0.182671 0.280451 9.54347C0.280451 28.7883 -3.29526 36.1859 9.40224 38.1603C24.2322 40.4659 29.389 40.0648 43.0065 40.0648C51.6665 40.0648 65.274 37.9915 75.3044 37.9707L116.116 37.8848C120.555 37.8755 128.396 38.4027 132.829 38.7197C137.63 39.0632 142.487 39.2787 147.448 39.3381L208.214 40.0648Z" fill="#22B14C"/>
</g>
<defs>
<clipPath id="clip0">
<rect width="250" height="40" fill="white"/>
</clipPath>
</defs>
</svg>
