<svg width="150" height="40" viewBox="0 0 150 40" fill="none" xmlns="http://www.w3.org/2000/svg">
<g clip-path="url(#clip0)">
<path fill-rule="evenodd" clip-rule="evenodd" d="M80.4366 4.86655L53.1263 1.88282C40.4948 2.32708 27.8635 2.77162 15.232 3.21588C8.81095 3.44175 0.167732 0.594015 0.167732 9.88282C0.167732 28.822 -1.97727 36.1724 5.63438 38.1039C21.8093 42.2074 29.4006 38.8284 44.5791 37.9762L69.6201 37.8311C74.9672 37.8311 81.0728 39.2647 87.8372 39.2642L124.841 39.9812C129.557 39.9812 134.661 38.5228 140.81 38.5834C143.957 38.6146 145.809 38.3257 147.243 35.9258C148.26 34.2241 149.889 29.6388 149.889 27.0818C149.889 22.4108 147.608 5.74362 145.761 2.87455C141.088 -4.38572 88.6206 4.86655 80.4366 4.86655Z" fill="white"/>
<path fill-rule="evenodd" clip-rule="evenodd" d="M139.17 2.27658C145.097 2.29658 145.299 5.62832 146.458 12.6078C147.007 15.9168 148.514 26.5755 147.862 29.287C146.067 36.748 144.537 36.5024 138.032 36.4331C132.578 36.375 128.12 37.9704 123.788 37.8848L78.9088 36.9971C75.3958 36.9278 72.7955 36.4299 70.1253 36.2579C61.7638 35.7195 55.832 35.2704 44.6026 35.7046C27.1586 36.3787 31.0008 40.3107 7.67406 36.2958C-0.254941 34.9312 1.87656 26.8467 1.87656 9.54352C1.87656 4.27498 6.77834 3.88218 10.4218 3.72992C24.4488 3.14432 38.5055 3.08725 52.595 3.59898C57.5881 3.78005 64.3625 5.45045 67.9867 5.37978C72.2013 5.29738 76.8371 6.55552 81.0519 6.47578C94.9959 6.21178 106.613 3.35418 120.5 2.74218L131.647 2.25072L139.17 2.27658ZM124.928 40.0648C127.254 40.111 131.637 39.0528 141.483 38.6534C145.921 38.4739 147.103 37.4347 148.986 31.692C149.431 30.3358 149.856 28.8792 149.883 27.2656C149.984 21.24 148.765 13.7416 147.862 9.31845C146.516 2.71898 146.087 -0.0319506 139.739 0.096316C137.325 0.145383 134.547 0.0856494 131.67 0.0968494C127.761 0.112316 123.695 0.257649 120.424 0.570716L80.4875 4.39658C76.8395 4.74592 72.2437 3.90218 67.6895 3.47685C62.6302 3.00432 60.3333 2.00032 53.1251 1.88538C40.3003 1.68112 26.4485 0.771783 13.655 1.91952C7.32156 2.48778 0.167416 0.182716 0.167416 9.54352C0.167416 28.7883 -1.97801 36.1859 5.64049 38.1603C14.5385 40.4659 17.6326 40.0648 25.8031 40.0648C30.9991 40.0648 39.1636 37.9915 45.1818 37.9707L69.6686 37.8848C72.3322 37.8755 77.0366 38.4027 79.6963 38.7198C82.577 39.0632 85.4915 39.2787 88.4681 39.3382L124.928 40.0648Z" fill="#22B14C"/>
</g>
<defs>
<clipPath id="clip0">
<rect width="150" height="40" fill="white"/>
</clipPath>
</defs>
</svg>
